<svg width="24" height="24" viewBox="0 0 24 24" fill="none" xmlns="http://www.w3.org/2000/svg">
<path d="M19 13H21C21.5523 13 22 13.4477 22 14V19C22 19.5523 21.5523 20 21 20H19.9832L18.4861 21.4139C18.0846 21.7931 17.4336 21.7931 17.0321 21.4139L15.535 20H13C12.4477 20 12 19.5523 12 19V18" stroke="#333333" stroke-width="1.5" stroke-linecap="round" stroke-linejoin="round"/>
<mask id="path-2-inside-1_2_2079" fill="white">
<path fill-rule="evenodd" clip-rule="evenodd" d="M2 4C1.44772 4 1 4.44772 1 5V15C1 15.5523 1.44772 16 2 16H4.22966L6.12311 17.7883C6.52463 18.1675 7.17562 18.1675 7.57714 17.7883L9.47059 16H16C16.5523 16 17 15.5523 17 15V5C17 4.44772 16.5523 4 16 4H2Z"/>
</mask>
<path d="M4.22966 16L5.25959 14.9095C4.98115 14.6465 4.61266 14.5 4.22966 14.5V16ZM6.12311 17.7883L5.09317 18.8788H5.09317L6.12311 17.7883ZM7.57714 17.7883L8.60707 18.8788H8.60707L7.57714 17.7883ZM9.47059 16V14.5C9.08759 14.5 8.7191 14.6465 8.44065 14.9095L9.47059 16ZM2.5 5C2.5 5.27614 2.27614 5.5 2 5.5V2.5C0.619289 2.5 -0.5 3.61929 -0.5 5H2.5ZM2.5 15V5H-0.5V15H2.5ZM2 14.5C2.27614 14.5 2.5 14.7239 2.5 15H-0.5C-0.5 16.3807 0.619288 17.5 2 17.5V14.5ZM4.22966 14.5H2V17.5H4.22966V14.5ZM7.15304 16.6977L5.25959 14.9095L3.19972 17.0905L5.09317 18.8788L7.15304 16.6977ZM6.5472 16.6977C6.64438 16.606 6.75794 16.5727 6.85012 16.5727C6.94231 16.5727 7.05586 16.606 7.15304 16.6977L5.09317 18.8788C6.07278 19.804 7.62746 19.804 8.60707 18.8788L6.5472 16.6977ZM8.44065 14.9095L6.5472 16.6977L8.60707 18.8788L10.5005 17.0905L8.44065 14.9095ZM16 14.5H9.47059V17.5H16V14.5ZM15.5 15C15.5 14.7239 15.7239 14.5 16 14.5V17.5C17.3807 17.5 18.5 16.3807 18.5 15H15.5ZM15.5 5V15H18.5V5H15.5ZM16 5.5C15.7239 5.5 15.5 5.27614 15.5 5H18.5C18.5 3.61929 17.3807 2.5 16 2.5V5.5ZM2 5.5H16V2.5H2V5.5Z" fill="#333333" mask="url(#path-2-inside-1_2_2079)"/>
<circle cx="6" cy="10" r="1" fill="#333333"/>
<circle cx="9" cy="10" r="1" fill="#333333"/>
<circle cx="12" cy="10" r="1" fill="#333333"/>
</svg>
