<svg xmlns="http://www.w3.org/2000/svg" xmlns:xlink="http://www.w3.org/1999/xlink"><symbol id="Icon Arrow Right" viewBox="0 0 24 24">
<path d="M3 12H21" stroke="#333333" stroke-width="1.5" stroke-linecap="round" stroke-linejoin="round"/>
<path d="M15 6L21 12" stroke="#333333" stroke-width="1.5" stroke-linecap="round" stroke-linejoin="round"/>
<path d="M15 18L21 12" stroke="#333333" stroke-width="1.5" stroke-linecap="round" stroke-linejoin="round"/>
</symbol><symbol id="Icon Check Filter" viewBox="0 0 16 16">
<path d="M2 8L6 12L14 4" stroke="#FFFFFF" stroke-width="2" stroke-linecap="round" stroke-linejoin="round"/>
</symbol><symbol id="Icon Check" viewBox="0 0 16 16">
<path d="M2 8L6 12L14 4" stroke="#333333" stroke-width="2" stroke-linecap="round" stroke-linejoin="round"/>
</symbol><symbol id="Icon Close" viewBox="0 0 16 16">
<path d="M3 3L13 13" stroke="black" stroke-width="2" stroke-linecap="round" stroke-linejoin="round"/>
<path d="M13 3L3 13" stroke="black" stroke-width="2" stroke-linecap="round" stroke-linejoin="round"/>
</symbol><symbol id="Icon Comment" viewBox="0 0 16 16">
<path fill-rule="evenodd" clip-rule="evenodd" d="M6.5 1C3.46243 1 1 3.46243 1 6.5C1 9.01755 2.6915 11.14 5 11.793V15L8.6 12H9.5C12.5376 12 15 9.53757 15 6.5C15 3.46243 12.5376 1 9.5 1H6.5Z"/>
</symbol><symbol id="Icon Company" viewBox="0 0 24 24">
<path d="M20.25 7H3.75C3.33579 7 3 7.36377 3 7.8125V19.1875C3 19.6362 3.33579 20 3.75 20H20.25C20.6642 20 21 19.6362 21 19.1875V7.8125C21 7.36377 20.6642 7 20.25 7Z" stroke="#333333" stroke-width="1.5" stroke-linecap="round" stroke-linejoin="round"/>
<path d="M15.75 6.75V5.25C15.75 4.85218 15.592 4.47064 15.3107 4.18934C15.0294 3.90804 14.6478 3.75 14.25 3.75H9.75C9.35218 3.75 8.97064 3.90804 8.68934 4.18934C8.40804 4.47064 8.25 4.85218 8.25 5.25V6.75" stroke="#333333" stroke-width="1.5" stroke-linecap="round" stroke-linejoin="round"/>
<path d="M3 14C10.0289 15.655 13.9701 15.6803 21 14" stroke="#333333" stroke-width="1.5" stroke-linecap="round" stroke-linejoin="round"/>
<line x1="10.75" y1="12.25" x2="13.25" y2="12.25" stroke="#333333" stroke-width="1.5" stroke-linecap="round" stroke-linejoin="round"/>
</symbol><symbol id="Icon Exit Bold" viewBox="0 0 24 24">
<path d="M14.1823 20H6.61781C5.72433 20 5.00003 18.8857 5.00003 17.5111V6.48889C5.00003 5.11431 5.72433 4 6.61781 4H14.1823" stroke="#333333" stroke-width="1.5" stroke-linecap="round" stroke-linejoin="round"/>
<path d="M10.1332 12.0499H20.9998" stroke="#333333" stroke-width="1.5" stroke-linecap="round" stroke-linejoin="round"/>
<path d="M17.7333 8.66663L20.9416 11.875" stroke="#333333" stroke-width="1.5" stroke-linecap="round" stroke-linejoin="round"/>
<path d="M17.8497 15.3168L20.9414 12.2251" stroke="#333333" stroke-width="1.5" stroke-linecap="round" stroke-linejoin="round"/>
</symbol><symbol id="Icon Exit" viewBox="0 0 16 16">
<rect width="16" height="16" fill="#F4F7FD"/>
<path d="M8.88672 14H3.21339C2.54328 14 2.00005 13.1643 2.00005 12.1333V3.86667C2.00005 2.83574 2.54328 2 3.21339 2H8.88672" stroke="#333333" stroke-width="2" stroke-linecap="round" stroke-linejoin="round"/>
<path d="M5.8501 8.03748H14.0001" stroke="#333333" stroke-width="2" stroke-linecap="round" stroke-linejoin="round"/>
<path d="M11.55 5.5L13.9563 7.90625" stroke="#333333" stroke-width="2" stroke-linecap="round" stroke-linejoin="round"/>
<path d="M11.6375 10.4875L13.9562 8.1688" stroke="#333333" stroke-width="2" stroke-linecap="round" stroke-linejoin="round"/>
</symbol><symbol id="Icon Favourite" viewBox="0 0 16 16">
<path d="M11.4832 1.33337C9.5765 1.33337 8.3665 3.43078 7.99984 4.19268C7.63317 3.43078 6.42317 1.33337 4.5165 1.33337C2.13317 1.33337 0.666504 3.42861 0.666504 5.33337C0.666504 7.23814 1.68317 8.81389 3.33317 10.3377C4.65317 11.5568 7.08317 13.9683 7.99984 14.6667C8.9165 13.9683 11.3465 11.5568 12.6665 10.3377C14.3165 8.81389 15.3332 7.23814 15.3332 5.33337C15.3332 3.42861 13.8665 1.33337 11.4832 1.33337Z"/>
</symbol><symbol id="Icon Filter" viewBox="0 0 16 16">
<line x1="1" y1="5" x2="3" y2="5" stroke-width="2" stroke-linecap="round" stroke-linejoin="round"/>
<line x1="1" y1="11" x2="5" y2="11" stroke-width="2" stroke-linecap="round" stroke-linejoin="round"/>
<line x1="11" y1="5" x2="15" y2="5" stroke-width="2" stroke-linecap="round" stroke-linejoin="round"/>
<line x1="13" y1="11" x2="15" y2="11" stroke-width="2" stroke-linecap="round" stroke-linejoin="round"/>
<circle cx="5" cy="5" r="2" fill="none" stroke-width="2"/>
<circle cx="11" cy="11" r="2" fill="none" stroke-width="2"/>
</symbol><symbol id="Icon Orders" viewBox="0 0 24 24">
<path d="M9 14.25H15" stroke="#333333" stroke-width="1.5" stroke-linecap="round" stroke-linejoin="round"/>
<path d="M9 11.25H15" stroke="#333333" stroke-width="1.5" stroke-linecap="round" stroke-linejoin="round"/>
<path d="M15.0002 3.75H18.75C18.9489 3.75 19.1397 3.82902 19.2803 3.96967C19.421 4.11032 19.5 4.30109 19.5 4.5V20.25C19.5 20.4489 19.421 20.6397 19.2803 20.7803C19.1397 20.921 18.9489 21 18.75 21H5.25C5.05109 21 4.86032 20.921 4.71967 20.7803C4.57902 20.6397 4.5 20.4489 4.5 20.25V4.5C4.5 4.30109 4.57902 4.11032 4.71967 3.96967C4.86032 3.82902 5.05109 3.75 5.25 3.75H8.9998" stroke="#333333" stroke-width="1.5" stroke-linecap="round" stroke-linejoin="round"/>
<path d="M8.25 6.75V6C8.25 5.00544 8.64509 4.05161 9.34835 3.34835C10.0516 2.64509 11.0054 2.25 12 2.25C12.9946 2.25 13.9484 2.64509 14.6517 3.34835C15.3549 4.05161 15.75 5.00544 15.75 6V6.75H8.25Z" stroke="#333333" stroke-width="1.5" stroke-linecap="round" stroke-linejoin="round"/>
</symbol><symbol id="Icon Projects" viewBox="0 0 24 24">
<mask id="path-1-inside-1_2_2066" fill="white">
<rect x="3" y="3" width="10" height="8" rx="1"/>
</mask>
<rect x="3" y="3" width="10" height="8" rx="1" stroke="#333333" stroke-width="3" mask="url(#path-1-inside-1_2_2066)"/>
<mask id="path-2-inside-2_2_2066" fill="white">
<rect x="15" y="3" width="6" height="8" rx="1"/>
</mask>
<rect x="15" y="3" width="6" height="8" rx="1" stroke="#333333" stroke-width="3" mask="url(#path-2-inside-2_2_2066)"/>
<mask id="path-3-inside-3_2_2066" fill="white">
<rect width="10" height="8" rx="1" transform="matrix(-1 0 0 1 21 13)"/>
</mask>
<rect width="10" height="8" rx="1" transform="matrix(-1 0 0 1 21 13)" stroke="#333333" stroke-width="3" mask="url(#path-3-inside-3_2_2066)"/>
<mask id="path-4-inside-4_2_2066" fill="white">
<rect width="6" height="8" rx="1" transform="matrix(-1 0 0 1 9 13)"/>
</mask>
<rect width="6" height="8" rx="1" transform="matrix(-1 0 0 1 9 13)" stroke="#333333" stroke-width="3" mask="url(#path-4-inside-4_2_2066)"/>
</symbol><symbol id="Icon Select" viewBox="0 0 16 16">
<path d="M3 6L8 11" stroke-width="2" stroke-linecap="round" stroke-linejoin="round"/>
<path d="M13 6L8 11" stroke-width="2" stroke-linecap="round" stroke-linejoin="round"/>
</symbol><symbol id="Icon Sort" viewBox="0 0 16 16">
<line x1="2" y1="4" x2="14" y2="4" stroke="black" stroke-width="2" stroke-linecap="round" stroke-linejoin="round"/>
<line x1="4" y1="8" x2="12" y2="8" stroke="black" stroke-width="2" stroke-linecap="round" stroke-linejoin="round"/>
<line x1="6" y1="12" x2="10" y2="12" stroke="black" stroke-width="2" stroke-linecap="round" stroke-linejoin="round"/>
</symbol><symbol id="Icon Support" viewBox="0 0 24 24">
<path d="M19 13H21C21.5523 13 22 13.4477 22 14V19C22 19.5523 21.5523 20 21 20H19.9832L18.4861 21.4139C18.0846 21.7931 17.4336 21.7931 17.0321 21.4139L15.535 20H13C12.4477 20 12 19.5523 12 19V18" stroke="#333333" stroke-width="1.5" stroke-linecap="round" stroke-linejoin="round"/>
<mask id="path-2-inside-1_2_2079" fill="white">
<path fill-rule="evenodd" clip-rule="evenodd" d="M2 4C1.44772 4 1 4.44772 1 5V15C1 15.5523 1.44772 16 2 16H4.22966L6.12311 17.7883C6.52463 18.1675 7.17562 18.1675 7.57714 17.7883L9.47059 16H16C16.5523 16 17 15.5523 17 15V5C17 4.44772 16.5523 4 16 4H2Z"/>
</mask>
<path d="M4.22966 16L5.25959 14.9095C4.98115 14.6465 4.61266 14.5 4.22966 14.5V16ZM6.12311 17.7883L5.09317 18.8788H5.09317L6.12311 17.7883ZM7.57714 17.7883L8.60707 18.8788H8.60707L7.57714 17.7883ZM9.47059 16V14.5C9.08759 14.5 8.7191 14.6465 8.44065 14.9095L9.47059 16ZM2.5 5C2.5 5.27614 2.27614 5.5 2 5.5V2.5C0.619289 2.5 -0.5 3.61929 -0.5 5H2.5ZM2.5 15V5H-0.5V15H2.5ZM2 14.5C2.27614 14.5 2.5 14.7239 2.5 15H-0.5C-0.5 16.3807 0.619288 17.5 2 17.5V14.5ZM4.22966 14.5H2V17.5H4.22966V14.5ZM7.15304 16.6977L5.25959 14.9095L3.19972 17.0905L5.09317 18.8788L7.15304 16.6977ZM6.5472 16.6977C6.64438 16.606 6.75794 16.5727 6.85012 16.5727C6.94231 16.5727 7.05586 16.606 7.15304 16.6977L5.09317 18.8788C6.07278 19.804 7.62746 19.804 8.60707 18.8788L6.5472 16.6977ZM8.44065 14.9095L6.5472 16.6977L8.60707 18.8788L10.5005 17.0905L8.44065 14.9095ZM16 14.5H9.47059V17.5H16V14.5ZM15.5 15C15.5 14.7239 15.7239 14.5 16 14.5V17.5C17.3807 17.5 18.5 16.3807 18.5 15H15.5ZM15.5 5V15H18.5V5H15.5ZM16 5.5C15.7239 5.5 15.5 5.27614 15.5 5H18.5C18.5 3.61929 17.3807 2.5 16 2.5V5.5ZM2 5.5H16V2.5H2V5.5Z" fill="#333333" mask="url(#path-2-inside-1_2_2079)"/>
<circle cx="6" cy="10" r="1" fill="#333333"/>
<circle cx="9" cy="10" r="1" fill="#333333"/>
<circle cx="12" cy="10" r="1" fill="#333333"/>
</symbol><symbol id="Icons Menu Close" viewBox="0 0 24 24">
<rect x="5.16016" y="3" width="22.4011" height="3.0547" rx="1" transform="rotate(45 5.16016 3)"/>
<rect width="22.4011" height="3.0547" rx="1" transform="matrix(-0.707107 0.707107 0.707107 0.707107 18.8398 3)"/>
</symbol><symbol id="Icons Menu Favourite" viewBox="0 0 24 24">
<path d="M6.65901 3.79081C7.08097 3.28446 7.65326 3 8.25 3H15.75C16.3467 3 16.919 3.28446 17.341 3.79081C17.7629 4.29716 18 4.98391 18 5.7V20.1C18 20.4371 17.843 20.746 17.5932 20.9002C17.3434 21.0545 17.0427 21.0283 16.8141 20.8324L12 16.706L7.18593 20.8324C6.95732 21.0283 6.65662 21.0545 6.40681 20.9002C6.15701 20.746 6 20.4371 6 20.1V5.7C6 4.98392 6.23705 4.29716 6.65901 3.79081Z" fill="#AFB3BB"/>
</symbol><symbol id="Icons Menu Gamburger" viewBox="0 0 24 24">
<rect x="1" y="4" width="22" height="3" rx="1" fill="#AFB3BB"/>
<rect x="1" y="11" width="13" height="3" rx="1" fill="#AFB3BB"/>
<rect x="1" y="18" width="18" height="3" rx="1" fill="#AFB3BB"/>
</symbol><symbol id="Icons Menu Notification" viewBox="0 0 24 24">
<path d="M11.9905 2C12.7945 2 13.4651 2.65177 13.4651 3.45577C13.4651 3.54333 13.4574 3.62909 13.4426 3.71239C16.266 4.36243 18.3713 6.89144 18.3713 9.91218V11.6704L18.3705 11.8815C18.3648 13.2874 18.3576 15.0808 19.5623 15.6123C20.5502 16.0481 20.5474 17.234 20.5456 17.9804L20.5454 18.0701H3.4544L3.45426 17.9804C3.45247 17.234 3.44964 16.0481 4.43752 15.6123C5.64227 15.0808 5.63502 13.2874 5.62935 11.8815L5.62859 11.6704V9.91218C5.62859 6.89144 7.7339 4.36243 10.5573 3.71239C10.5424 3.62909 10.5347 3.54333 10.5347 3.45577C10.5347 2.65177 11.1865 2 11.9905 2Z" fill="#AFB3BB"/>
<path fill-rule="evenodd" clip-rule="evenodd" d="M8.46753 19.1666C8.86076 20.7519 10.2932 21.9269 12 21.9269C13.7069 21.9269 15.1393 20.7519 15.5326 19.1666H8.46753Z" fill="#AFB3BB"/>
</symbol></svg>